<svg xmlns="http://www.w3.org/2000/svg" width="540" height="540" viewBox="0 0 1080 1080">
  <metadata><?xpacket begin="﻿" id="W5M0MpCehiHzreSzNTczkc9d"?>
<x:xmpmeta xmlnsX="adobe:ns:meta/" x:xmptk="Adobe XMP Core 5.6-c138 79.159824, 2016/09/14-01:09:01        ">
   <rdf:RDF xmlnsRdf="http://www.w3.org/1999/02/22-rdf-syntax-ns#">
      <rdf:Description rdf:about=""/>
   </rdf:RDF>
</x:xmpmeta>
                                                                                                    
                                                                                                    
                                                                                                    
                                                                                                    
                                                                                                    
                                                                                                    
                                                                                                    
                                                                                                    
                                                                                                    
                                                                                                    
                                                                                                    
                                                                                                    
                                                                                                    
                                                                                                    
                                                                                                    
                                                                                                    
                                                                                                    
                                                                                                    
                                                                                                    
                                                                                                    
                           
<?xpacket end="w"?></metadata>
<defs>
    <style>
      .cls-1, .cls-3 {
        fill: #10142c;
      }

      .cls-2 {
        fill: #0bf;
      }

      .cls-3 {
        fill-rule: evenodd;
      }
    </style>
  </defs>
  <rect class="cls-1" width="1080" height="1080"/>
  <circle class="cls-2" cx="538.5" cy="496.5" r="323.5"/>
  <path class="cls-3" d="M284.673,771.864c9.618-17.18,20.809-24.585,40.358-37.823S388.038,685.487,405.749,671c7.434-18.6,10.089-56.734,10.089-56.734s9.169-3.96,10.09-7.565c4.443-55.96-31.817-75.879-52.971-126.076-6.45-19.068-10.72-44.127-12.612-61.778s7.378-38.254,6.306-40.344c3.036-4.415,6.306-13.238,15.135-22.694s13.033-7.145,20.179-10.086c0.841-6.724,2.943-12.188,3.784-18.912,10.088-8.4,20.172-20.4,39.1-30.258,30.269-15.76,83.24-7.565,76.934-6.3s2.522-10.716,7.567-11.347c2.587-.323,10.868,1.8,17.657,1.261,6.448-.509,11.306-3.68,17.657-3.782,6.157-.1,14.411,8.657,21.44,11.347,3.37,1.289,12.146-3.619,15.135-2.522,20.478,7.518,39.728,25.846,31.53,20.172s15.135,3.152,26.485,12.608c7.018,5.846.7,31.659,5.045,41.605,4.826,11.032-7.567,22.694-7.567,22.694s8.618,37.837,15.135,50.431c0.42,13.026-4.625,17.231-5.045,29,7.987,14.708,26.065,45.81,34.052,60.517-6.161,20.478-21.446,10.357-23.963,18.912,0.75,4.235,1.3,16.065,2.523,20.172,2.68,8.969-7.567,10.086-7.567,10.086s7.814,5.814,6.306,12.608c-0.911,4.1-8.721,4.365-10.09,10.086-2.214,9.25,7.848,25.208,0,34.04-44.853,27.386-53.945,7.142-78.2,18.912-1.726,7.765-8.552,38.3-4.808,41.329,18.725,13.371,42.295,34.045,45.167,57.011-3.724,5.118-18.594,16.147-16.672,22.339,3.3,8.918,11.262,15.491,17.933,23.048,0.958,4.628-.548,17.979,0,18.912,14.061,23.948,32.81,44.029,61,86.744-6.439,23.075-28.248,18.317-53.428,17.9-21.451-2.114-40.348.223-65.583-3.782C450.1,895.521,382.178,869.917,299.058,791.7,292.24,787.833,289.717,780.479,284.673,771.864Z"/>
</svg>
